<svg width="189" height="188" viewBox="0 0 189 188" fill="none" xmlns="http://www.w3.org/2000/svg">
<path d="M146.88 128.423L145.008 131.003L144.195 130.413L146.067 127.833L146.88 128.423ZM144.027 126.477L144.724 125.516L149.899 129.27L147.158 133.048L146.352 132.463L148.396 129.646L144.027 126.477Z" fill="white"/>
<path d="M139.124 133.137L143.596 137.706L141.717 139.546C141.312 139.942 140.902 140.215 140.487 140.366C140.068 140.52 139.661 140.553 139.265 140.462C138.87 140.372 138.509 140.159 138.181 139.824C137.853 139.489 137.648 139.123 137.566 138.726C137.488 138.333 137.532 137.929 137.695 137.513C137.859 137.106 138.143 136.704 138.548 136.308L139.958 134.928L139.956 135.684L138.276 133.967L139.124 133.137ZM136.135 136.063L138.913 136.59L138.006 137.478L135.221 136.957L136.135 136.063ZM139.867 135.592L140.641 135.627L139.271 136.968C138.896 137.334 138.695 137.69 138.665 138.034C138.631 138.382 138.755 138.7 139.036 138.987C139.321 139.279 139.636 139.409 139.981 139.378C140.321 139.352 140.679 139.156 141.053 138.789L142.424 137.448L142.454 138.236L139.867 135.592Z" fill="white"/>
<path d="M132.785 144.031L130.171 145.839L129.615 145.036L132.229 143.227L132.785 144.031ZM131.15 141.83L128.184 143.882L127.617 143.063L131.56 140.335L135.198 145.593L131.36 148.248L130.794 147.43L133.655 145.45L131.15 141.83Z" fill="white"/>
<path d="M124.374 149.457L121.507 150.829L121.085 149.947L123.952 148.575L124.374 149.457ZM123.109 147.025L119.855 148.582L119.425 147.684L123.75 145.614L126.51 151.381L122.3 153.396L121.87 152.498L125.009 150.996L123.109 147.025Z" fill="white"/>
<path d="M109.317 154.917L106.188 155.523L105.997 154.536L109.126 153.93L109.317 154.917ZM108.562 151.546L109.728 151.321L110.944 157.597L106.362 158.485L106.172 157.507L109.589 156.846L108.562 151.546Z" fill="white"/>
<path d="M100.435 153.044L100.585 159.436L97.9557 159.498C97.3896 159.511 96.9035 159.431 96.4974 159.258C96.0853 159.085 95.7657 158.83 95.5385 158.495C95.3113 158.159 95.1923 157.757 95.1812 157.288C95.1702 156.819 95.2703 156.412 95.4814 156.066C95.6926 155.726 96 155.46 96.4036 155.268C96.8012 155.082 97.283 154.982 97.8492 154.969L99.8214 154.922L99.3045 155.473L99.248 153.072L100.435 153.044ZM96.2531 153.143L97.9238 155.424L96.6546 155.454L94.9748 153.173L96.2531 153.143ZM99.3015 155.346L99.8444 155.899L97.9269 155.944C97.4034 155.957 97.0134 156.079 96.757 156.31C96.4945 156.541 96.3679 156.858 96.3774 157.26C96.387 157.668 96.5282 157.978 96.8012 158.191C97.0681 158.404 97.4633 158.504 97.9868 158.492L99.9043 158.447L99.3885 159.044L99.3015 155.346Z" fill="white"/>
<path d="M88.3694 156.673L85.2251 156.209L85.3679 155.242L88.5121 155.707L88.3694 156.673ZM88.6793 153.95L85.1103 153.423L85.2558 152.438L89.9993 153.138L89.0654 159.463L84.4483 158.781L84.5938 157.796L88.0362 158.305L88.6793 153.95Z" fill="white"/>
<path d="M78.4975 154.881L75.4657 153.927L75.759 152.995L78.7908 153.949L78.4975 154.881ZM79.2328 152.24L75.7914 151.158L76.0902 150.208L80.6641 151.647L78.7453 157.746L74.2934 156.345L74.5922 155.395L77.9115 156.44L79.2328 152.24Z" fill="white"/>
<path d="M63.5916 148.462L60.9011 146.753L61.4398 145.905L64.1303 147.614L63.5916 148.462ZM65.358 145.494L66.3602 146.131L62.9322 151.527L58.9927 149.025L59.5265 148.185L62.4637 150.05L65.358 145.494Z" fill="white"/>
<path d="M58.4352 141.011L54.1655 145.77L52.2077 144.013C51.7862 143.635 51.4869 143.244 51.3098 142.839C51.1282 142.431 51.0696 142.027 51.1342 141.626C51.1988 141.226 51.3876 140.852 51.7007 140.503C52.0138 140.154 52.3658 139.925 52.7567 139.818C53.1435 139.715 53.5497 139.732 53.9753 139.869C54.3924 140.005 54.8116 140.263 55.2331 140.641L56.7015 141.959L55.9473 142.006L57.5515 140.218L58.4352 141.011ZM55.3218 138.217L54.9757 141.024L54.0308 140.176L54.3701 137.364L55.3218 138.217ZM56.0327 141.911L56.0488 142.686L54.6212 141.405C54.2315 141.055 53.8639 140.877 53.5186 140.87C53.1688 140.859 52.8596 141.003 52.5912 141.302C52.3188 141.605 52.2091 141.928 52.2621 142.27C52.3106 142.608 52.5297 142.952 52.9195 143.302L54.347 144.583L53.5624 144.664L56.0327 141.911Z" fill="white"/>
<path d="M47.1843 135.395L45.2134 132.901L45.9801 132.295L47.951 134.789L47.1843 135.395ZM49.2773 133.624L47.0402 130.794L47.8212 130.177L50.7945 133.939L45.7788 137.903L42.8848 134.241L43.6658 133.624L45.8236 136.354L49.2773 133.624Z" fill="white"/>
<path d="M41.2322 127.327L39.6838 124.552L40.5372 124.075L42.0856 126.851L41.2322 127.327ZM43.5805 125.913L41.823 122.762L42.6924 122.277L45.0284 126.465L39.445 129.579L37.1714 125.503L38.0408 125.018L39.736 128.057L43.5805 125.913Z" fill="white"/>
<path d="M34.8631 112.686L34.065 109.6L35.0376 109.349L35.8357 112.435L34.8631 112.686ZM38.1803 111.725L38.4776 112.874L32.288 114.475L31.1194 109.956L32.0832 109.707L32.9545 113.076L38.1803 111.725Z" fill="white"/>
<path d="M36.1797 103.732L29.8099 104.28L29.5847 101.659C29.5362 101.095 29.5858 100.605 29.7334 100.189C29.8804 99.7665 30.1144 99.4316 30.4354 99.184C30.7564 98.9365 31.1504 98.7926 31.6175 98.7525C32.0846 98.7123 32.4974 98.7868 32.8559 98.9761C33.2084 99.1658 33.493 99.456 33.71 99.8469C33.9203 100.232 34.0497 100.707 34.0982 101.271L34.2671 103.237L33.6848 102.755L36.0781 102.549L36.1797 103.732ZM35.8216 99.5646L33.6487 101.374L33.54 100.109L35.7121 98.2906L35.8216 99.5646ZM33.8122 102.744L33.2934 103.32L33.1292 101.409C33.0844 100.888 32.9385 100.506 32.6916 100.264C32.4442 100.017 32.1203 99.9101 31.7199 99.9445C31.3135 99.9794 31.0125 100.14 30.8171 100.425C30.6211 100.705 30.5455 101.106 30.5903 101.627L30.7546 103.538L30.1268 103.061L33.8122 102.744Z" fill="white"/>
<path d="M31.7986 91.9099L32.0633 88.7425L33.0372 88.8239L32.7725 91.9912L31.7986 91.9099ZM34.5367 92.047L34.8372 88.4519L35.8292 88.5348L35.4299 93.3131L29.0588 92.7807L29.4475 88.1298L30.4395 88.2127L30.1498 91.6804L34.5367 92.047Z" fill="white"/>
<path d="M32.9498 81.9479L33.7183 78.8638L34.6666 79.1001L33.8981 82.1842L32.9498 81.9479ZM35.6306 82.5218L36.5029 79.0212L37.4689 79.2619L36.3095 83.9146L30.1059 82.3688L31.2344 77.8401L32.2003 78.0808L31.359 81.4574L35.6306 82.5218Z" fill="white"/>
<path d="M38.2905 66.9223L39.8196 64.1254L40.7011 64.6074L39.1721 67.4042L38.2905 66.9223ZM41.368 68.4902L40.7984 69.532L35.1887 66.4651L37.4275 62.3701L38.301 62.8476L36.6318 65.9009L41.368 68.4902Z" fill="white"/>
<path d="M45.4875 61.1019L40.4761 57.1319L42.1095 55.0701C42.4611 54.6262 42.8332 54.3035 43.226 54.1019C43.6225 53.8956 44.0224 53.8124 44.4258 53.8523C44.8292 53.8922 45.2146 54.0577 45.5821 54.3488C45.9496 54.64 46.199 54.9773 46.3301 55.3609C46.4565 55.7406 46.4647 56.1471 46.3545 56.5803C46.2434 57.005 46.012 57.4392 45.6604 57.8831L44.4354 59.4295L44.3419 58.6796L46.2248 60.1712L45.4875 61.1019ZM48.085 57.823L45.2627 57.6496L46.051 56.6545L48.879 56.8207L48.085 57.823ZM44.4422 58.759L43.6694 58.8226L44.8603 57.3192C45.1855 56.9087 45.3411 56.531 45.327 56.1858C45.3168 55.8359 45.1542 55.5362 44.8392 55.2867C44.5194 55.0334 44.1904 54.9437 43.8523 55.0175C43.5179 55.0867 43.1881 55.3265 42.8629 55.7369L41.672 57.2403L41.5427 56.4621L44.4422 58.759Z" fill="white"/>
<path d="M50.3228 49.5646L52.685 47.4381L53.3388 48.1644L50.9766 50.2909L50.3228 49.5646ZM52.2239 51.5399L54.9051 49.1261L55.5712 49.866L52.0075 53.0742L47.73 48.3226L51.1986 45.2L51.8647 45.9399L49.2785 48.2681L52.2239 51.5399Z" fill="white"/>
<path d="M57.9806 43.0888L60.6535 41.3689L61.1823 42.1907L58.5094 43.9106L57.9806 43.0888ZM59.5401 45.3436L62.5739 43.3914L63.1126 44.2286L59.0803 46.8232L55.6208 41.4468L59.5456 38.9213L60.0843 39.7585L57.158 41.6415L59.5401 45.3436Z" fill="white"/>
<path d="M72.2721 35.7407L75.3029 34.7535L75.6141 35.7088L72.5833 36.696L72.2721 35.7407ZM73.4369 38.9922L72.3079 39.3599L70.3279 33.281L74.7655 31.8355L75.0738 32.7821L71.7652 33.8598L73.4369 38.9922Z" fill="white"/>
<path d="M81.3103 36.481L80.3696 30.1573L82.9714 29.7703C83.5315 29.687 84.0237 29.7061 84.4481 29.8276C84.8785 29.9483 85.2272 30.1611 85.4942 30.4661C85.7612 30.7711 85.9291 31.1555 85.9981 31.6193C86.0671 32.083 86.0183 32.4996 85.8516 32.8692C85.6841 33.2326 85.412 33.5347 85.0354 33.7754C84.6639 34.0092 84.1981 34.1678 83.638 34.2511L81.6866 34.5414L82.1313 33.9304L82.4847 36.3063L81.3103 36.481ZM85.4479 35.8656L83.5075 33.8088L84.7632 33.622L86.7126 35.6774L85.4479 35.8656ZM82.1501 34.0569L81.5428 33.5747L83.44 33.2925C83.9579 33.2155 84.3298 33.0463 84.5556 32.7849C84.7875 32.5227 84.8738 32.1928 84.8147 31.7953C84.7547 31.3918 84.576 31.1013 84.2788 30.9239C83.9876 30.7457 83.583 30.695 83.065 30.7721L81.1679 31.0543L81.6059 30.3982L82.1501 34.0569Z" fill="white"/>
<path d="M92.4599 31.3678L95.6378 31.4215L95.6213 32.3986L92.4434 32.3449L92.4599 31.3678ZM92.5049 34.1089L96.1121 34.1699L96.0952 35.1653L91.3009 35.0843L91.409 28.6919L96.0754 28.7707L96.0586 29.7661L92.5793 29.7073L92.5049 34.1089Z" fill="white"/>
<path d="M102.797 31.8702L105.924 32.44L105.749 33.4015L102.622 32.8316L102.797 31.8702ZM102.396 34.5821L105.945 35.229L105.766 36.2084L101.049 35.3487L102.195 29.059L106.787 29.8957L106.608 30.8751L103.185 30.2512L102.396 34.5821Z" fill="white"/>
<path d="M117.84 36.0955L120.731 37.4383L120.308 38.3495L117.417 37.0067L117.84 36.0955ZM116.477 39.2689L115.4 38.7687L118.093 32.9704L122.326 34.9365L121.907 35.8394L118.751 34.3735L116.477 39.2689Z" fill="white"/>
<path d="M124.138 42.8671L127.772 37.6068L129.936 39.1018C130.402 39.4236 130.748 39.7739 130.975 40.1526C131.207 40.5348 131.316 40.9284 131.303 41.3335C131.289 41.7387 131.149 42.1341 130.883 42.5199C130.616 42.9056 130.296 43.1765 129.922 43.3325C129.551 43.4834 129.146 43.5181 128.707 43.4365C128.276 43.3534 127.827 43.151 127.361 42.8291L125.738 41.7079L126.48 41.5656L125.115 43.542L124.138 42.8671ZM127.58 45.2446L127.568 42.417L128.613 43.1386L128.632 45.9713L127.58 45.2446ZM126.408 41.6708L126.294 40.9038L127.872 41.9939C128.303 42.2915 128.69 42.422 129.033 42.3855C129.382 42.3524 129.67 42.1705 129.898 41.8399C130.13 41.5042 130.198 41.1701 130.102 40.8374C130.012 40.5083 129.751 40.1949 129.32 39.8973L127.742 38.8072L128.51 38.6273L126.408 41.6708Z" fill="white"/>
<path d="M136.138 47.0376L138.412 49.2577L137.73 49.957L135.455 47.7369L136.138 47.0376ZM134.289 49.0621L136.871 51.5821L136.176 52.2945L132.744 48.9452L137.21 44.3701L140.55 47.6301L139.855 48.3425L137.364 45.9118L134.289 49.0621Z" fill="white"/>
<path d="M143.21 54.373L145.096 56.9316L144.309 57.5113L142.423 54.9527L143.21 54.373ZM141.058 56.072L143.199 58.9762L142.397 59.5668L139.553 55.7069L144.699 51.9139L147.468 55.6709L146.667 56.2615L144.602 53.4603L141.058 56.072Z" fill="white"/>
</svg>
